<?xml version="1.0" encoding="UTF-8"?>
<svg xmlns="http://www.w3.org/2000/svg" xmlns:xlink="http://www.w3.org/1999/xlink" width="33px" height="33px" viewBox="0 0 33 33" version="1.1">
<g id="surface1">
<path style=" stroke:none;fill-rule:nonzero;fill:rgb(0%,0%,0%);fill-opacity:1;" d="M 9.488281 1.980469 C 4.539062 4.125 0 11.304688 0 16.914062 C 0 17.820312 0.414062 20.046875 0.90625 21.863281 C 2.554688 27.804688 12.375 35.308594 12.375 30.605469 C 12.375 29.617188 11.632812 28.957031 10.066406 28.628906 C 8.742188 28.382812 7.011719 27.144531 6.269531 25.988281 C 4.289062 23.019531 5.03125 22.605469 7.757812 25.164062 C 10.3125 27.554688 10.972656 27.636719 12.375 25.988281 C 13.613281 24.503906 13.613281 24.585938 10.066406 23.101562 C 6.519531 21.695312 5.695312 18.644531 7.011719 10.890625 C 7.507812 8.414062 8.003906 7.425781 9.074219 7.425781 C 9.820312 7.425781 10.726562 7.671875 11.054688 8.003906 C 11.882812 8.828125 21.449219 8.910156 21.945312 8.085938 C 22.195312 7.757812 23.019531 7.425781 23.84375 7.425781 C 24.996094 7.425781 25.492188 8.332031 25.988281 10.890625 C 27.304688 18.808594 26.480469 21.863281 22.6875 23.179688 C 20.789062 23.925781 19.882812 24.667969 20.210938 25.410156 C 20.460938 25.988281 20.625 27.804688 20.625 29.367188 C 20.625 33.332031 22.933594 33.082031 27.554688 28.628906 C 31.019531 25.328125 33 21.039062 33 16.914062 C 33 11.136719 28.382812 4.042969 23.347656 1.980469 C 19.964844 0.492188 12.707031 0.578125 9.488281 1.980469 Z M 9.488281 1.980469 "/>
</g>
</svg>
