<?xml version="1.0" encoding="UTF-8"?>
<!DOCTYPE svg PUBLIC "-//W3C//DTD SVG 1.1//EN" "http://www.w3.org/Graphics/SVG/1.1/DTD/svg11.dtd">
<svg xmlns="http://www.w3.org/2000/svg" version="1.1" width="1080px" height="1080px" style="shape-rendering:geometricPrecision; text-rendering:geometricPrecision; image-rendering:optimizeQuality; fill-rule:evenodd; clip-rule:evenodd" xmlns:xlink="http://www.w3.org/1999/xlink">
<g><path style="opacity:1" fill="#ff914d" d="M -0.5,-0.5 C 359.5,-0.5 719.5,-0.5 1079.5,-0.5C 1079.5,359.5 1079.5,719.5 1079.5,1079.5C 719.5,1079.5 359.5,1079.5 -0.5,1079.5C -0.5,719.5 -0.5,359.5 -0.5,-0.5 Z"/></g>
<g><path style="opacity:1" fill="#fffbf9" d="M 560.5,166.5 C 562.722,166.178 564.556,166.845 566,168.5C 564.459,308.501 562.459,448.501 560,588.5C 558.728,594.956 555.062,597.29 549,595.5C 549.807,455.154 551.807,314.821 555,174.5C 556.273,171.403 558.107,168.736 560.5,166.5 Z"/></g>
<g><path style="opacity:1" fill="#fefefe" d="M 224.5,206.5 C 280.168,206.333 335.834,206.5 391.5,207C 436.865,216.698 464.698,244.198 475,289.5C 475.667,343.833 475.667,398.167 475,452.5C 468.867,489.638 448.701,516.138 414.5,532C 405.705,535.115 396.705,537.449 387.5,539C 334.833,539.667 282.167,539.667 229.5,539C 187.531,531.699 159.698,507.866 146,467.5C 144.213,461.634 143.213,455.634 143,449.5C 142.026,394.802 142.359,340.135 144,285.5C 155.226,243.106 182.059,216.773 224.5,206.5 Z"/></g>
<g><path style="opacity:1" fill="#e0e0e0" d="M 337.5,235.5 C 302.506,228.594 269.506,233.761 238.5,251C 236.082,254.047 233.082,256.38 229.5,258C 228.262,258.69 228.262,259.19 229.5,259.5C 216.421,269.911 205.088,281.911 195.5,295.5C 196.071,291.691 197.738,288.357 200.5,285.5C 201.577,283.271 202.244,280.937 202.5,278.5C 207.493,274.087 212.493,269.587 217.5,265C 250.021,237.112 287.688,226.112 330.5,232C 333.084,232.86 335.417,234.027 337.5,235.5 Z"/></g>
<g><path style="opacity:1" fill="#f6f6f6" d="M 437.5,371.5 C 433.045,424.784 406.711,462.951 358.5,486C 334.263,495.488 309.263,498.321 283.5,494.5C 225.659,480.824 190.493,444.824 178,386.5C 175.185,366.203 176.518,346.203 182,326.5C 185.833,315.819 190.333,305.486 195.5,295.5C 205.088,281.911 216.421,269.911 229.5,259.5C 276.365,228.671 324.698,226.504 374.5,253C 417.433,280.693 438.433,320.193 437.5,371.5 Z"/></g>
<g><path style="opacity:1" fill="#fffcfb" d="M 722.5,452.5 C 733.167,452.5 743.833,452.5 754.5,452.5C 754.737,451.209 754.404,450.209 753.5,449.5C 747.469,430.574 741.136,411.741 734.5,393C 713.169,392.5 691.836,392.333 670.5,392.5C 664.702,411.894 658.702,431.227 652.5,450.5C 651.957,450.56 651.624,450.893 651.5,451.5C 663.815,452.499 676.149,452.832 688.5,452.5C 688.5,454.167 688.5,455.833 688.5,457.5C 665.167,457.5 641.833,457.5 618.5,457.5C 618.5,455.833 618.5,454.167 618.5,452.5C 627.833,452.5 637.167,452.5 646.5,452.5C 668.689,383.098 691.189,313.765 714,244.5C 716.022,243.009 717.688,243.342 719,245.5C 742.016,314.38 764.516,383.38 786.5,452.5C 795.833,452.5 805.167,452.5 814.5,452.5C 814.5,454.167 814.5,455.833 814.5,457.5C 783.833,457.5 753.167,457.5 722.5,457.5C 722.5,455.833 722.5,454.167 722.5,452.5 Z"/></g>
<g><path style="opacity:1" fill="#f0f0ef" d="M 412.5,294.5 C 410.797,295.66 410.131,294.993 410.5,292.5C 407.833,292.5 405.167,292.5 402.5,292.5C 402.5,296.833 402.5,301.167 402.5,305.5C 399.167,305.5 395.833,305.5 392.5,305.5C 392.5,307.833 392.5,310.167 392.5,312.5C 389.482,312.335 386.482,312.502 383.5,313C 382.773,315.124 382.106,317.291 381.5,319.5C 383.289,320.623 383.622,321.956 382.5,323.5C 381.476,322.147 380.143,321.48 378.5,321.5C 378.5,320.5 378.5,319.5 378.5,318.5C 375.673,318.416 373.006,317.75 370.5,316.5C 366.461,311.46 361.794,307.127 356.5,303.5C 348.734,296.785 339.734,292.451 329.5,290.5C 326.797,289.037 323.797,288.204 320.5,288C 311.465,287.252 302.465,287.419 293.5,288.5C 293.874,286.05 295.374,285.05 298,285.5C 306.649,287.399 314.983,286.732 323,283.5C 327.447,283.801 327.281,284.301 322.5,285C 325.331,287.189 327.664,286.689 329.5,283.5C 332.428,282.516 335.428,282.183 338.5,282.5C 338.171,276.794 338.505,271.128 339.5,265.5C 340.086,265.709 340.586,266.043 341,266.5C 343.8,265.875 346.634,265.208 349.5,264.5C 349.709,263.914 350.043,263.414 350.5,263C 353.482,262.502 356.482,262.335 359.5,262.5C 359.176,258.445 359.509,254.445 360.5,250.5C 382.052,260.041 399.385,274.708 412.5,294.5 Z"/></g>
<g><path style="opacity:1" fill="#eaeaea" d="M 412.5,294.5 C 422.37,307.918 428.703,322.918 431.5,339.5C 430.259,337.069 429.092,337.069 428,339.5C 427.667,339.167 427.333,338.833 427,338.5C 426.316,339.784 426.483,340.951 427.5,342C 425.606,343.079 425.273,344.413 426.5,346C 425.207,346.49 423.873,346.657 422.5,346.5C 421.265,348.773 421.598,350.606 423.5,352C 419.848,352.499 416.182,352.665 412.5,352.5C 412.5,356.833 412.5,361.167 412.5,365.5C 409.421,365.74 406.421,365.407 403.5,364.5C 402.548,366.045 402.215,367.712 402.5,369.5C 399.239,370.575 395.905,371.575 392.5,372.5C 391.77,375.109 391.27,377.776 391,380.5C 389.956,379.377 389.29,378.044 389,376.5C 388.828,369.987 388.328,363.653 387.5,357.5C 386.739,346.551 383.406,336.551 377.5,327.5C 375.588,323.583 373.255,319.917 370.5,316.5C 373.006,317.75 375.673,318.416 378.5,318.5C 378.5,319.5 378.5,320.5 378.5,321.5C 380.143,321.48 381.476,322.147 382.5,323.5C 383.622,321.956 383.289,320.623 381.5,319.5C 382.106,317.291 382.773,315.124 383.5,313C 386.482,312.502 389.482,312.335 392.5,312.5C 392.5,310.167 392.5,307.833 392.5,305.5C 395.833,305.5 399.167,305.5 402.5,305.5C 402.5,301.167 402.5,296.833 402.5,292.5C 405.167,292.5 407.833,292.5 410.5,292.5C 410.131,294.993 410.797,295.66 412.5,294.5 Z"/></g>
<g><path style="opacity:1" fill="#f2f0ee" d="M 328.5,294.5 C 336.792,296.822 344.458,300.488 351.5,305.5C 361.671,312.665 369.671,321.665 375.5,332.5C 381.688,345.114 384.022,358.447 382.5,372.5C 382.442,377.394 381.442,382.061 379.5,386.5C 376.763,386.608 374.096,386.442 371.5,386C 372.99,383.8 372.657,381.966 370.5,380.5C 368.302,383.243 366.302,383.077 364.5,380C 368.5,377.333 368.5,374.667 364.5,372C 361.918,372.255 359.252,372.422 356.5,372.5C 356.657,373.873 356.49,375.207 356,376.5C 355.242,374.231 355.409,372.064 356.5,370C 355.906,369.536 355.239,369.369 354.5,369.5C 359.651,368.673 364.984,368.173 370.5,368C 371.833,366.667 371.833,365.333 370.5,364C 364.74,364.122 359.407,363.289 354.5,361.5C 353.417,351.669 349.417,343.336 342.5,336.5C 342.141,334.629 341.141,333.129 339.5,332C 331.335,325.419 322.002,321.919 311.5,321.5C 311.5,315.5 311.5,309.5 311.5,303.5C 309.833,303.5 308.167,303.5 306.5,303.5C 306.5,309.167 306.5,314.833 306.5,320.5C 281.685,324.315 267.685,338.648 264.5,363.5C 258.5,363.5 252.5,363.5 246.5,363.5C 246.5,365.167 246.5,366.833 246.5,368.5C 252.5,368.5 258.5,368.5 264.5,368.5C 264.672,373.931 266.005,378.931 268.5,383.5C 272.039,393.243 278.372,400.577 287.5,405.5C 286.883,407.68 285.883,409.68 284.5,411.5C 285.426,415.094 285.759,418.76 285.5,422.5C 280.238,422.195 275.072,422.529 270,423.5C 268.39,421.69 267.223,419.69 266.5,417.5C 266.446,418.53 266.112,419.697 265.5,421C 263.893,420.981 262.226,420.815 260.5,420.5C 253.696,414.369 248.029,407.369 243.5,399.5C 237.216,385.52 234.549,370.853 235.5,355.5C 242.366,322.132 262.366,301.299 295.5,293C 306.576,292.126 317.576,292.626 328.5,294.5 Z"/></g>
<g><path style="opacity:1" fill="#f57a21" d="M 329.5,290.5 C 339.734,292.451 348.734,296.785 356.5,303.5C 353.672,301.599 352.006,302.266 351.5,305.5C 344.458,300.488 336.792,296.822 328.5,294.5C 327.194,293.533 326.527,292.199 326.5,290.5C 327.5,290.5 328.5,290.5 329.5,290.5 Z"/></g>
<g><path style="opacity:1" fill="#ff924f" d="M 702.5,297.5 C 712.666,326.661 722.666,355.995 732.5,385.5C 712.833,386.833 693.167,386.833 673.5,385.5C 683.176,356.139 692.843,326.805 702.5,297.5 Z"/></g>
<g><path style="opacity:1" fill="#efefef" d="M 202.5,278.5 C 202.244,280.937 201.577,283.271 200.5,285.5C 197.738,288.357 196.071,291.691 195.5,295.5C 193.008,298.469 190.508,301.469 188,304.5C 185.04,313.616 181.707,322.616 178,331.5C 169.9,363.514 172.566,394.514 186,424.5C 190.333,431.5 194.667,438.5 199,445.5C 201.345,448.177 204.012,450.51 207,452.5C 207.891,455.03 209.058,457.363 210.5,459.5C 207.269,457.78 204.436,455.447 202,452.5C 164.079,401.528 160.579,348.195 191.5,292.5C 194.704,287.401 198.371,282.734 202.5,278.5 Z"/></g>
<g><path style="opacity:1" fill="#f6f6f6" d="M 441.5,333.5 C 443.117,335.121 444.284,337.121 445,339.5C 449.268,354.201 452.101,369.201 453.5,384.5C 452.962,395.891 451.962,407.224 450.5,418.5C 450.931,419.293 451.265,420.127 451.5,421C 449.751,426.409 448.084,431.742 446.5,437C 446.833,437.333 447.167,437.667 447.5,438C 445.606,439.079 445.273,440.413 446.5,442C 444.506,445.967 442.506,449.967 440.5,454C 436.664,460.958 432.331,467.125 427.5,472.5C 426.218,474.179 425.218,476.013 424.5,478C 423.552,478.483 422.552,478.649 421.5,478.5C 420.091,482.903 417.091,485.903 412.5,487.5C 410.087,489.409 408.253,491.743 407,494.5C 405.092,491.668 404.259,492.001 404.5,495.5C 394.924,499.615 385.257,503.781 375.5,508C 343.813,514.985 312.48,513.652 281.5,504C 280.944,503.617 280.611,503.117 280.5,502.5C 293.275,505.482 306.442,507.816 320,509.5C 330.23,509.954 340.73,509.454 351.5,508C 362.172,506.416 372.506,503.749 382.5,500C 389.281,496.055 395.948,492.722 402.5,490C 402.167,489.667 401.833,489.333 401.5,489C 403.436,488.187 405.436,487.687 407.5,487.5C 407.393,485.097 408.393,483.264 410.5,482C 412.303,481.363 413.636,480.197 414.5,478.5C 415.689,477.571 417.022,477.238 418.5,477.5C 419.416,472.253 422.416,468.919 427.5,467.5C 427.642,464.383 428.976,461.883 431.5,460C 447.13,432.22 452.964,401.387 449,367.5C 447.144,355.683 444.644,344.35 441.5,333.5 Z"/></g>
<g><path style="opacity:1" fill="#f69333" d="M 329.5,290.5 C 328.5,290.5 327.5,290.5 326.5,290.5C 326.527,292.199 327.194,293.533 328.5,294.5C 317.576,292.626 306.576,292.126 295.5,293C 262.366,301.299 242.366,322.132 235.5,355.5C 235.66,353.801 235.494,352.134 235,350.5C 231.83,357.413 230.664,364.747 231.5,372.5C 230.518,369.038 230.185,365.371 230.5,361.5C 234.996,322.801 255.996,298.468 293.5,288.5C 302.465,287.419 311.465,287.252 320.5,288C 323.797,288.204 326.797,289.037 329.5,290.5 Z"/></g>
<g><path style="opacity:1" fill="#efefef" d="M 385.5,256.5 C 386.873,256.343 388.207,256.51 389.5,257C 397.296,262.13 403.796,268.63 409,276.5C 410.011,277.337 411.178,277.67 412.5,277.5C 412.421,278.93 412.754,280.264 413.5,281.5C 425.206,295.445 434.373,311.111 441,328.5C 441.494,330.134 441.66,331.801 441.5,333.5C 444.644,344.35 447.144,355.683 449,367.5C 452.964,401.387 447.13,432.22 431.5,460C 428.976,461.883 427.642,464.383 427.5,467.5C 422.416,468.919 419.416,472.253 418.5,477.5C 417.022,477.238 415.689,477.571 414.5,478.5C 413.636,480.197 412.303,481.363 410.5,482C 408.393,483.264 407.393,485.097 407.5,487.5C 405.436,487.687 403.436,488.187 401.5,489C 401.833,489.333 402.167,489.667 402.5,490C 395.948,492.722 389.281,496.055 382.5,500C 372.506,503.749 362.172,506.416 351.5,508C 340.73,509.454 330.23,509.954 320,509.5C 306.442,507.816 293.275,505.482 280.5,502.5C 272.363,500.176 264.363,497.343 256.5,494C 248.782,489.81 241.115,485.643 233.5,481.5C 233.67,480.178 233.337,479.011 232.5,478C 224.371,474.073 217.371,468.573 211.5,461.5C 212.922,461.709 214.255,462.209 215.5,463C 221.652,468.241 227.985,473.241 234.5,478C 246.066,484.283 257.733,490.117 269.5,495.5C 270.347,496.966 271.68,497.8 273.5,498C 284.333,499.847 294.833,502.681 305,506.5C 305.725,505.941 306.558,505.608 307.5,505.5C 346.22,511.741 380.553,502.574 410.5,478C 428.672,460.268 440.005,439.602 444.5,416C 445.906,410.877 447.239,405.711 448.5,400.5C 448.452,391.29 448.452,382.123 448.5,373C 447.274,364.555 445.274,356.388 442.5,348.5C 442.559,343.319 440.892,338.986 437.5,335.5C 437.291,328.756 435.124,322.756 431,317.5C 430.667,315.833 430.333,314.167 430,312.5C 425.25,303.998 420.25,295.664 415,287.5C 405.495,276.574 395.662,266.241 385.5,256.5 Z"/></g>
<g><path style="opacity:1" fill="#e8e8e8" d="M 442.5,348.5 C 445.274,356.388 447.274,364.555 448.5,373C 448.452,382.123 448.452,391.29 448.5,400.5C 447.239,405.711 445.906,410.877 444.5,416C 440.005,439.602 428.672,460.268 410.5,478C 380.553,502.574 346.22,511.741 307.5,505.5C 306.558,505.608 305.725,505.941 305,506.5C 294.833,502.681 284.333,499.847 273.5,498C 271.68,497.8 270.347,496.966 269.5,495.5C 277.356,497.461 285.356,499.127 293.5,500.5C 327.045,507.059 359.045,501.893 389.5,485C 409.543,470.622 424.877,452.289 435.5,430C 436.886,424.011 438.719,417.844 441,411.5C 445.089,390.604 445.589,369.604 442.5,348.5 Z"/></g>
<g><path style="opacity:1" fill="#d9d9d9" d="M 437.5,335.5 C 440.892,338.986 442.559,343.319 442.5,348.5C 445.589,369.604 445.089,390.604 441,411.5C 438.719,417.844 436.886,424.011 435.5,430C 424.877,452.289 409.543,470.622 389.5,485C 359.045,501.893 327.045,507.059 293.5,500.5C 328.092,504.724 360.425,497.224 390.5,478C 423.653,452.524 440.986,419.024 442.5,377.5C 441.422,363.375 439.756,349.375 437.5,335.5 Z"/></g>
<g><path style="opacity:1" fill="#d0d0d0" d="M 337.5,235.5 C 345.752,238.137 354.086,240.637 362.5,243C 364.876,245.68 367.876,247.013 371.5,247C 375.668,250.916 380.335,254.083 385.5,256.5C 395.662,266.241 405.495,276.574 415,287.5C 420.25,295.664 425.25,303.998 430,312.5C 430.333,314.167 430.667,315.833 431,317.5C 435.124,322.756 437.291,328.756 437.5,335.5C 439.756,349.375 441.422,363.375 442.5,377.5C 440.986,419.024 423.653,452.524 390.5,478C 360.425,497.224 328.092,504.724 293.5,500.5C 285.356,499.127 277.356,497.461 269.5,495.5C 257.733,490.117 246.066,484.283 234.5,478C 227.985,473.241 221.652,468.241 215.5,463C 214.255,462.209 212.922,461.709 211.5,461.5C 211.167,460.833 210.833,460.167 210.5,459.5C 209.058,457.363 207.891,455.03 207,452.5C 204.012,450.51 201.345,448.177 199,445.5C 194.667,438.5 190.333,431.5 186,424.5C 172.566,394.514 169.9,363.514 178,331.5C 181.707,322.616 185.04,313.616 188,304.5C 190.508,301.469 193.008,298.469 195.5,295.5C 190.333,305.486 185.833,315.819 182,326.5C 176.518,346.203 175.185,366.203 178,386.5C 190.493,444.824 225.659,480.824 283.5,494.5C 280.917,495.092 280.917,495.758 283.5,496.5C 339.608,504.834 384.441,487.168 418,443.5C 435.277,416.813 442.277,387.48 439,355.5C 438.827,361.016 438.327,366.349 437.5,371.5C 438.433,320.193 417.433,280.693 374.5,253C 324.698,226.504 276.365,228.671 229.5,259.5C 228.262,259.19 228.262,258.69 229.5,258C 233.082,256.38 236.082,254.047 238.5,251C 269.506,233.761 302.506,228.594 337.5,235.5 Z"/></g>
<g><path style="opacity:1" fill="#f68524" d="M 235.5,355.5 C 234.549,370.853 237.216,385.52 243.5,399.5C 241.703,398.27 239.703,397.604 237.5,397.5C 234.085,389.508 232.085,381.175 231.5,372.5C 230.664,364.747 231.83,357.413 235,350.5C 235.494,352.134 235.66,353.801 235.5,355.5 Z"/></g>
<g><path style="opacity:1" fill="#eb7b43" d="M 328.5,353.5 C 330.974,355.898 332.308,358.898 332.5,362.5C 334.948,363.473 337.615,363.806 340.5,363.5C 337.713,364.477 334.713,364.81 331.5,364.5C 331.5,365.5 331.5,366.5 331.5,367.5C 337.5,367.5 343.5,367.5 349.5,367.5C 349.795,369.735 349.461,371.735 348.5,373.5C 348.5,371.833 348.5,370.167 348.5,368.5C 343.167,368.5 337.833,368.5 332.5,368.5C 332.737,369.791 332.404,370.791 331.5,371.5C 330.226,368.344 330.226,365.177 331.5,362C 330.114,359.268 329.114,356.435 328.5,353.5 Z"/></g>
<g><path style="opacity:1" fill="#f1c0a7" d="M 348.5,357.5 C 349.167,357.5 349.5,357.833 349.5,358.5C 349.5,360.167 349.5,361.833 349.5,363.5C 346.5,363.5 343.5,363.5 340.5,363.5C 337.615,363.806 334.948,363.473 332.5,362.5C 337.833,362.5 343.167,362.5 348.5,362.5C 348.5,360.833 348.5,359.167 348.5,357.5 Z"/></g>
<g><path style="opacity:1" fill="#f2cbb1" d="M 325.5,357.5 C 326.738,359.214 327.405,361.214 327.5,363.5C 323.167,363.5 318.833,363.5 314.5,363.5C 318.312,362.676 322.312,362.176 326.5,362C 325.62,360.644 325.286,359.144 325.5,357.5 Z"/></g>
<g><path style="opacity:1" fill="#f5d3b6" d="M 286.5,360.5 C 286.5,361.5 286.5,362.5 286.5,363.5C 280.642,363.822 274.975,363.489 269.5,362.5C 275.463,363.045 281.13,362.379 286.5,360.5 Z"/></g>
<g><path style="opacity:1" fill="#efebe7" d="M 307.5,359.5 C 308.542,360.791 309.708,360.791 311,359.5C 311.499,355.514 311.666,351.514 311.5,347.5C 317.614,348.883 322.281,352.217 325.5,357.5C 325.286,359.144 325.62,360.644 326.5,362C 322.312,362.176 318.312,362.676 314.5,363.5C 314.5,365.167 314.5,366.833 314.5,368.5C 318.884,368.174 323.217,368.508 327.5,369.5C 324.98,377.421 319.647,382.087 311.5,383.5C 311.665,379.818 311.499,376.152 311,372.5C 309.989,371.663 308.822,371.33 307.5,371.5C 306.517,375.298 306.183,379.298 306.5,383.5C 297.861,382.194 292.861,377.194 291.5,368.5C 295.182,368.665 298.848,368.499 302.5,368C 303.833,366.667 303.833,365.333 302.5,364C 298.848,363.501 295.182,363.335 291.5,363.5C 293.047,354.952 298.047,349.619 306.5,347.5C 306.183,351.702 306.517,355.702 307.5,359.5 Z"/></g>
<g><path style="opacity:1" fill="#f0561b" d="M 377.5,327.5 C 383.406,336.551 386.739,346.551 387.5,357.5C 387.5,358.5 387.5,359.5 387.5,360.5C 386.71,359.391 386.21,358.058 386,356.5C 385.667,358.167 385.333,359.833 385,361.5C 384.667,360.833 384.333,360.167 384,359.5C 383.825,364.019 383.325,368.353 382.5,372.5C 384.022,358.447 381.688,345.114 375.5,332.5C 375.539,331.417 375.873,330.417 376.5,329.5C 373.919,327.09 374.252,326.424 377.5,327.5 Z"/></g>
<g><path style="opacity:1" fill="#f2631a" d="M 342.5,336.5 C 349.417,343.336 353.417,351.669 354.5,361.5C 353.021,360.241 351.354,359.241 349.5,358.5C 349.5,357.833 349.167,357.5 348.5,357.5C 346.666,349.496 342.999,342.496 337.5,336.5C 338.935,335.904 340.602,335.904 342.5,336.5 Z"/></g>
<g><path style="opacity:1" fill="#f3741d" d="M 342.5,336.5 C 340.602,335.904 338.935,335.904 337.5,336.5C 331.437,331.303 324.437,327.969 316.5,326.5C 314.735,325.539 312.735,325.205 310.5,325.5C 310.178,331.358 310.511,337.025 311.5,342.5C 313.553,342.402 315.22,343.069 316.5,344.5C 315.25,344.577 314.417,345.244 314,346.5C 312.204,345.233 310.371,345.233 308.5,346.5C 307.508,350.783 307.174,355.116 307.5,359.5C 306.517,355.702 306.183,351.702 306.5,347.5C 298.047,349.619 293.047,354.952 291.5,363.5C 295.182,363.335 298.848,363.501 302.5,364C 303.833,365.333 303.833,366.667 302.5,368C 298.848,368.499 295.182,368.665 291.5,368.5C 292.861,377.194 297.861,382.194 306.5,383.5C 306.183,379.298 306.517,375.298 307.5,371.5C 308.08,375.81 308.414,380.143 308.5,384.5C 306.801,384.34 305.134,384.506 303.5,385C 303.833,385.333 304.167,385.667 304.5,386C 303.263,386.232 302.263,386.732 301.5,387.5C 292.455,384.432 287.455,378.099 286.5,368.5C 280.681,367.672 274.681,367.172 268.5,367C 268.957,366.586 269.291,366.086 269.5,365.5C 275.319,364.833 280.986,364.167 286.5,363.5C 286.5,362.5 286.5,361.5 286.5,360.5C 289.637,351.027 295.971,345.027 305.5,342.5C 306.489,337.025 306.822,331.358 306.5,325.5C 305.737,324.732 304.737,324.232 303.5,324C 304.448,323.517 305.448,323.351 306.5,323.5C 306.5,322.5 306.5,321.5 306.5,320.5C 306.5,314.833 306.5,309.167 306.5,303.5C 308.167,303.5 309.833,303.5 311.5,303.5C 311.5,309.5 311.5,315.5 311.5,321.5C 322.002,321.919 331.335,325.419 339.5,332C 341.141,333.129 342.141,334.629 342.5,336.5 Z"/></g>
<g><path style="opacity:1" fill="#e4e3e3" d="M 431.5,339.5 C 435.789,358.365 435.456,377.031 430.5,395.5C 430.649,394.448 430.483,393.448 430,392.5C 428.136,393.964 425.969,394.964 423.5,395.5C 425.562,397.092 425.895,398.925 424.5,401C 420.605,402.266 416.605,402.766 412.5,402.5C 412.756,404.792 412.423,406.959 411.5,409C 408.518,409.498 405.518,409.665 402.5,409.5C 402.5,412.167 402.5,414.833 402.5,417.5C 399.413,419.017 396.079,419.684 392.5,419.5C 392.5,421.833 392.5,424.167 392.5,426.5C 388.833,426.5 385.167,426.5 381.5,426.5C 381.227,428.451 381.893,429.951 383.5,431C 380.354,434.467 376.354,436.133 371.5,436C 370.359,436.741 370.359,437.575 371.5,438.5C 370.675,439.386 369.675,439.719 368.5,439.5C 368.227,441.451 368.893,442.951 370.5,444C 368.861,448.494 366.194,449.328 362.5,446.5C 361.178,451.071 360.345,455.738 360,460.5C 356.667,459.167 353.333,459.167 350,460.5C 348.985,464.44 348.485,468.44 348.5,472.5C 345.5,472.5 342.5,472.5 339.5,472.5C 339.625,476.791 338.958,480.957 337.5,485C 338.884,486.957 338.217,487.957 335.5,488C 336.094,488.464 336.761,488.631 337.5,488.5C 316.625,493.728 295.625,493.728 274.5,488.5C 276.343,487.717 278.343,487.05 280.5,486.5C 281.696,486.846 281.696,487.346 280.5,488C 282.134,488.494 283.801,488.66 285.5,488.5C 285.923,481.5 286.423,474.5 287,467.5C 293.211,469.434 299.711,470.101 306.5,469.5C 306.681,463.652 307.514,457.986 309,452.5C 309.483,453.448 309.649,454.448 309.5,455.5C 311.833,455.5 314.167,455.5 316.5,455.5C 317.006,451.993 316.34,448.826 314.5,446C 310.975,445.821 307.641,445.321 304.5,444.5C 348.379,443.44 375.879,421.773 387,379.5C 387.5,373.175 387.666,366.842 387.5,360.5C 387.5,359.5 387.5,358.5 387.5,357.5C 388.328,363.653 388.828,369.987 389,376.5C 389.29,378.044 389.956,379.377 391,380.5C 391.27,377.776 391.77,375.109 392.5,372.5C 395.905,371.575 399.239,370.575 402.5,369.5C 402.215,367.712 402.548,366.045 403.5,364.5C 406.421,365.407 409.421,365.74 412.5,365.5C 412.5,361.167 412.5,356.833 412.5,352.5C 416.182,352.665 419.848,352.499 423.5,352C 421.598,350.606 421.265,348.773 422.5,346.5C 423.873,346.657 425.207,346.49 426.5,346C 425.273,344.413 425.606,343.079 427.5,342C 426.483,340.951 426.316,339.784 427,338.5C 427.333,338.833 427.667,339.167 428,339.5C 429.092,337.069 430.259,337.069 431.5,339.5 Z"/></g>
<g><path style="opacity:1" fill="#f5cba9" d="M 306.5,325.5 C 306.822,331.358 306.489,337.025 305.5,342.5C 305.5,337.167 305.5,331.833 305.5,326.5C 303.194,326.993 300.861,327.326 298.5,327.5C 300.838,325.96 303.505,325.294 306.5,325.5 Z"/></g>
<g><path style="opacity:1" fill="#e08b4b" d="M 316.5,326.5 C 314.833,326.5 313.167,326.5 311.5,326.5C 311.5,331.833 311.5,337.167 311.5,342.5C 310.511,337.025 310.178,331.358 310.5,325.5C 312.735,325.205 314.735,325.539 316.5,326.5 Z"/></g>
<g><path style="opacity:1" fill="#f3f0ee" d="M 305.5,342.5 C 295.971,345.027 289.637,351.027 286.5,360.5C 281.13,362.379 275.463,363.045 269.5,362.5C 271.53,344.473 281.197,332.806 298.5,327.5C 300.861,327.326 303.194,326.993 305.5,326.5C 305.5,331.833 305.5,337.167 305.5,342.5 Z"/></g>
<g><path style="opacity:1" fill="#f4832a" d="M 306.5,320.5 C 306.5,321.5 306.5,322.5 306.5,323.5C 305.448,323.351 304.448,323.517 303.5,324C 304.737,324.232 305.737,324.732 306.5,325.5C 303.505,325.294 300.838,325.96 298.5,327.5C 281.197,332.806 271.53,344.473 269.5,362.5C 274.975,363.489 280.642,363.822 286.5,363.5C 280.986,364.167 275.319,364.833 269.5,365.5C 269.291,366.086 268.957,366.586 268.5,367C 274.681,367.172 280.681,367.672 286.5,368.5C 280.833,368.5 275.167,368.5 269.5,368.5C 270.202,373.976 271.536,379.31 273.5,384.5C 271.9,383.748 270.4,382.748 269,381.5C 268.536,382.094 268.369,382.761 268.5,383.5C 266.005,378.931 264.672,373.931 264.5,368.5C 258.5,368.5 252.5,368.5 246.5,368.5C 246.5,366.833 246.5,365.167 246.5,363.5C 252.5,363.5 258.5,363.5 264.5,363.5C 267.685,338.648 281.685,324.315 306.5,320.5 Z"/></g>
<g><path style="opacity:1" fill="#f0eeec" d="M 316.5,326.5 C 324.437,327.969 331.437,331.303 337.5,336.5C 342.999,342.496 346.666,349.496 348.5,357.5C 348.5,359.167 348.5,360.833 348.5,362.5C 343.167,362.5 337.833,362.5 332.5,362.5C 332.308,358.898 330.974,355.898 328.5,353.5C 326.242,348.249 322.242,345.249 316.5,344.5C 315.22,343.069 313.553,342.402 311.5,342.5C 311.5,337.167 311.5,331.833 311.5,326.5C 313.167,326.5 314.833,326.5 316.5,326.5 Z"/></g>
<g><path style="opacity:1" fill="#f1671c" d="M 356.5,303.5 C 361.794,307.127 366.461,311.46 370.5,316.5C 373.255,319.917 375.588,323.583 377.5,327.5C 374.252,326.424 373.919,327.09 376.5,329.5C 375.873,330.417 375.539,331.417 375.5,332.5C 369.671,321.665 361.671,312.665 351.5,305.5C 352.006,302.266 353.672,301.599 356.5,303.5 Z"/></g>
<g><path style="opacity:1" fill="#f0f0ef" d="M 230.5,361.5 C 230.185,365.371 230.518,369.038 231.5,372.5C 232.085,381.175 234.085,389.508 237.5,397.5C 243.537,410.577 252.204,421.577 263.5,430.5C 262.288,431.23 261.288,432.23 260.5,433.5C 259.914,433.291 259.414,432.957 259,432.5C 258.503,434.81 258.337,437.143 258.5,439.5C 252.5,439.5 246.5,439.5 240.5,439.5C 240.072,443.275 240.739,446.775 242.5,450C 241.297,451.368 240.297,452.868 239.5,454.5C 239.705,457.013 239.872,459.68 240,462.5C 235.066,461.189 230.233,461.189 225.5,462.5C 209.83,449.984 198.163,434.484 190.5,416C 193.54,415.404 196.206,414.237 198.5,412.5C 199.659,408.286 199.659,404.119 198.5,400C 199.09,398.491 199.756,396.991 200.5,395.5C 206.439,396.457 212.439,396.79 218.5,396.5C 218.954,391.638 219.121,386.638 219,381.5C 221.038,379.928 223.371,378.928 226,378.5C 226.738,376.047 227.238,373.547 227.5,371C 226.722,367.845 226.555,364.678 227,361.5C 227.667,364.167 228.333,366.833 229,369.5C 229.183,366.635 229.683,363.969 230.5,361.5 Z"/></g>
<g><path style="opacity:1" fill="#ebe8e7" d="M 348.5,373.5 C 343.575,392.76 331.242,403.426 311.5,405.5C 311.5,399.833 311.5,394.167 311.5,388.5C 321.838,387.163 328.505,381.496 331.5,371.5C 332.404,370.791 332.737,369.791 332.5,368.5C 337.833,368.5 343.167,368.5 348.5,368.5C 348.5,370.167 348.5,371.833 348.5,373.5 Z"/></g>
<g><path style="opacity:1" fill="#e9e7e6" d="M 354.5,369.5 C 355.239,369.369 355.906,369.536 356.5,370C 355.409,372.064 355.242,374.231 356,376.5C 356.49,375.207 356.657,373.873 356.5,372.5C 359.252,372.422 361.918,372.255 364.5,372C 368.5,374.667 368.5,377.333 364.5,380C 366.302,383.077 368.302,383.243 370.5,380.5C 372.657,381.966 372.99,383.8 371.5,386C 374.096,386.442 376.763,386.608 379.5,386.5C 369.317,416.84 348.317,434.34 316.5,439C 310.509,439.499 304.509,439.666 298.5,439.5C 287.887,437.199 277.887,433.199 268.5,427.5C 265.833,425.167 263.167,422.833 260.5,420.5C 262.226,420.815 263.893,420.981 265.5,421C 266.112,419.697 266.446,418.53 266.5,417.5C 267.223,419.69 268.39,421.69 270,423.5C 275.072,422.529 280.238,422.195 285.5,422.5C 285.759,418.76 285.426,415.094 284.5,411.5C 285.883,409.68 286.883,407.68 287.5,405.5C 292.203,408.016 297.203,409.683 302.5,410.5C 303.209,411.404 304.209,411.737 305.5,411.5C 305.179,417.026 305.512,422.36 306.5,427.5C 308.01,428.728 309.51,428.728 311,427.5C 311.499,421.843 311.666,416.176 311.5,410.5C 332.543,408.629 346.376,397.629 353,377.5C 353.822,374.883 354.322,372.216 354.5,369.5 Z"/></g>
<g><path style="opacity:1" fill="#ef4312" d="M 387.5,360.5 C 387.666,366.842 387.5,373.175 387,379.5C 375.879,421.773 348.379,443.44 304.5,444.5C 302.097,444.552 299.764,444.219 297.5,443.5C 296.737,442.732 295.737,442.232 294.5,442C 295.308,440.294 296.641,439.461 298.5,439.5C 304.509,439.666 310.509,439.499 316.5,439C 348.317,434.34 369.317,416.84 379.5,386.5C 381.442,382.061 382.442,377.394 382.5,372.5C 383.325,368.353 383.825,364.019 384,359.5C 384.333,360.167 384.667,360.833 385,361.5C 385.333,359.833 385.667,358.167 386,356.5C 386.21,358.058 386.71,359.391 387.5,360.5 Z"/></g>
<g><path style="opacity:1" fill="#eeeae8" d="M 286.5,368.5 C 287.455,378.099 292.455,384.432 301.5,387.5C 302.919,388.451 304.585,388.784 306.5,388.5C 306.5,394.167 306.5,399.833 306.5,405.5C 291.736,404.291 280.736,397.291 273.5,384.5C 271.536,379.31 270.202,373.976 269.5,368.5C 275.167,368.5 280.833,368.5 286.5,368.5 Z"/></g>
<g><path style="opacity:1" fill="#ef651c" d="M 316.5,344.5 C 322.242,345.249 326.242,348.249 328.5,353.5C 329.114,356.435 330.114,359.268 331.5,362C 330.226,365.177 330.226,368.344 331.5,371.5C 328.505,381.496 321.838,387.163 311.5,388.5C 311.5,394.167 311.5,399.833 311.5,405.5C 310.834,400.651 310.167,395.651 309.5,390.5C 308.914,390.291 308.414,389.957 308,389.5C 307.827,395.016 307.327,400.349 306.5,405.5C 306.5,399.833 306.5,394.167 306.5,388.5C 304.585,388.784 302.919,388.451 301.5,387.5C 302.263,386.732 303.263,386.232 304.5,386C 304.167,385.667 303.833,385.333 303.5,385C 305.134,384.506 306.801,384.34 308.5,384.5C 308.414,380.143 308.08,375.81 307.5,371.5C 308.822,371.33 309.989,371.663 311,372.5C 311.499,376.152 311.665,379.818 311.5,383.5C 319.647,382.087 324.98,377.421 327.5,369.5C 323.217,368.508 318.884,368.174 314.5,368.5C 314.5,366.833 314.5,365.167 314.5,363.5C 318.833,363.5 323.167,363.5 327.5,363.5C 327.405,361.214 326.738,359.214 325.5,357.5C 322.281,352.217 317.614,348.883 311.5,347.5C 311.666,351.514 311.499,355.514 311,359.5C 309.708,360.791 308.542,360.791 307.5,359.5C 307.174,355.116 307.508,350.783 308.5,346.5C 310.371,345.233 312.204,345.233 314,346.5C 314.417,345.244 315.25,344.577 316.5,344.5 Z"/></g>
<g><path style="opacity:1" fill="#dedede" d="M 430.5,395.5 C 419.608,437.742 393.941,467.242 353.5,484C 348.287,486.017 342.954,487.517 337.5,488.5C 336.761,488.631 336.094,488.464 335.5,488C 338.217,487.957 338.884,486.957 337.5,485C 338.958,480.957 339.625,476.791 339.5,472.5C 342.5,472.5 345.5,472.5 348.5,472.5C 348.485,468.44 348.985,464.44 350,460.5C 353.333,459.167 356.667,459.167 360,460.5C 360.345,455.738 361.178,451.071 362.5,446.5C 366.194,449.328 368.861,448.494 370.5,444C 368.893,442.951 368.227,441.451 368.5,439.5C 369.675,439.719 370.675,439.386 371.5,438.5C 370.359,437.575 370.359,436.741 371.5,436C 376.354,436.133 380.354,434.467 383.5,431C 381.893,429.951 381.227,428.451 381.5,426.5C 385.167,426.5 388.833,426.5 392.5,426.5C 392.5,424.167 392.5,421.833 392.5,419.5C 396.079,419.684 399.413,419.017 402.5,417.5C 402.5,414.833 402.5,412.167 402.5,409.5C 405.518,409.665 408.518,409.498 411.5,409C 412.423,406.959 412.756,404.792 412.5,402.5C 416.605,402.766 420.605,402.266 424.5,401C 425.895,398.925 425.562,397.092 423.5,395.5C 425.969,394.964 428.136,393.964 430,392.5C 430.483,393.448 430.649,394.448 430.5,395.5 Z"/></g>
<g><path style="opacity:1" fill="#f05517" d="M 349.5,358.5 C 351.354,359.241 353.021,360.241 354.5,361.5C 359.407,363.289 364.74,364.122 370.5,364C 371.833,365.333 371.833,366.667 370.5,368C 364.984,368.173 359.651,368.673 354.5,369.5C 354.322,372.216 353.822,374.883 353,377.5C 346.376,397.629 332.543,408.629 311.5,410.5C 311.666,416.176 311.499,421.843 311,427.5C 309.51,428.728 308.01,428.728 306.5,427.5C 306.5,421.833 306.5,416.167 306.5,410.5C 305.5,410.5 304.5,410.5 303.5,410.5C 302.602,409.842 301.602,409.176 300.5,408.5C 302.444,407.199 304.444,406.199 306.5,405.5C 307.327,400.349 307.827,395.016 308,389.5C 308.414,389.957 308.914,390.291 309.5,390.5C 310.167,395.651 310.834,400.651 311.5,405.5C 331.242,403.426 343.575,392.76 348.5,373.5C 349.461,371.735 349.795,369.735 349.5,367.5C 343.5,367.5 337.5,367.5 331.5,367.5C 331.5,366.5 331.5,365.5 331.5,364.5C 334.713,364.81 337.713,364.477 340.5,363.5C 343.5,363.5 346.5,363.5 349.5,363.5C 349.5,361.833 349.5,360.167 349.5,358.5 Z"/></g>
<g><path style="opacity:1" fill="#f26619" d="M 273.5,384.5 C 280.736,397.291 291.736,404.291 306.5,405.5C 304.444,406.199 302.444,407.199 300.5,408.5C 301.602,409.176 302.602,409.842 303.5,410.5C 303.167,410.5 302.833,410.5 302.5,410.5C 297.203,409.683 292.203,408.016 287.5,405.5C 278.372,400.577 272.039,393.243 268.5,383.5C 268.369,382.761 268.536,382.094 269,381.5C 270.4,382.748 271.9,383.748 273.5,384.5 Z"/></g>
<g><path style="opacity:1" fill="#f2bfa4" d="M 302.5,410.5 C 302.833,410.5 303.167,410.5 303.5,410.5C 304.5,410.5 305.5,410.5 306.5,410.5C 306.5,416.167 306.5,421.833 306.5,427.5C 305.512,422.36 305.179,417.026 305.5,411.5C 304.209,411.737 303.209,411.404 302.5,410.5 Z"/></g>
<g><path style="opacity:1" fill="#c4c4c4" d="M 283.5,494.5 C 309.263,498.321 334.263,495.488 358.5,486C 406.711,462.951 433.045,424.784 437.5,371.5C 438.327,366.349 438.827,361.016 439,355.5C 442.277,387.48 435.277,416.813 418,443.5C 384.441,487.168 339.608,504.834 283.5,496.5C 280.917,495.758 280.917,495.092 283.5,494.5 Z"/></g>
<g><path style="opacity:1" fill="#f2691b" d="M 237.5,397.5 C 239.703,397.604 241.703,398.27 243.5,399.5C 248.029,407.369 253.696,414.369 260.5,420.5C 263.167,422.833 265.833,425.167 268.5,427.5C 267.234,428.09 265.901,428.59 264.5,429C 265.056,429.383 265.389,429.883 265.5,430.5C 264.833,430.5 264.167,430.5 263.5,430.5C 252.204,421.577 243.537,410.577 237.5,397.5 Z"/></g>
<g><path style="opacity:1" fill="#eaeaea" d="M 263.5,430.5 C 264.167,430.5 264.833,430.5 265.5,430.5C 274.794,437.938 285.461,442.272 297.5,443.5C 299.764,444.219 302.097,444.552 304.5,444.5C 307.641,445.321 310.975,445.821 314.5,446C 316.34,448.826 317.006,451.993 316.5,455.5C 314.167,455.5 311.833,455.5 309.5,455.5C 309.649,454.448 309.483,453.448 309,452.5C 307.514,457.986 306.681,463.652 306.5,469.5C 299.711,470.101 293.211,469.434 287,467.5C 286.423,474.5 285.923,481.5 285.5,488.5C 283.801,488.66 282.134,488.494 280.5,488C 281.696,487.346 281.696,486.846 280.5,486.5C 278.343,487.05 276.343,487.717 274.5,488.5C 255.938,483.723 239.605,475.056 225.5,462.5C 230.233,461.189 235.066,461.189 240,462.5C 239.872,459.68 239.705,457.013 239.5,454.5C 240.297,452.868 241.297,451.368 242.5,450C 240.739,446.775 240.072,443.275 240.5,439.5C 246.5,439.5 252.5,439.5 258.5,439.5C 258.337,437.143 258.503,434.81 259,432.5C 259.414,432.957 259.914,433.291 260.5,433.5C 261.288,432.23 262.288,431.23 263.5,430.5 Z"/></g>
<g><path style="opacity:1" fill="#f1591a" d="M 268.5,427.5 C 277.887,433.199 287.887,437.199 298.5,439.5C 296.641,439.461 295.308,440.294 294.5,442C 295.737,442.232 296.737,442.732 297.5,443.5C 285.461,442.272 274.794,437.938 265.5,430.5C 265.389,429.883 265.056,429.383 264.5,429C 265.901,428.59 267.234,428.09 268.5,427.5 Z"/></g>
<g><path style="opacity:1" fill="#ffae7b" d="M 753.5,449.5 C 754.404,450.209 754.737,451.209 754.5,452.5C 743.833,452.5 733.167,452.5 722.5,452.5C 733.04,452.158 743.374,451.158 753.5,449.5 Z"/></g>
<g><path style="opacity:1" fill="#ffad7b" d="M 652.5,450.5 C 664.5,451.167 676.5,451.833 688.5,452.5C 676.149,452.832 663.815,452.499 651.5,451.5C 651.624,450.893 651.957,450.56 652.5,450.5 Z"/></g>
<g><path style="opacity:1" fill="#fff9f5" d="M 446.5,667.5 C 447.75,667.577 448.583,668.244 449,669.5C 456.677,691.698 463.844,714.031 470.5,736.5C 473.898,736.18 477.232,736.513 480.5,737.5C 470.167,738.833 459.833,738.833 449.5,737.5C 452.768,736.513 456.102,736.18 459.5,736.5C 458.182,730.044 456.349,723.711 454,717.5C 446.891,716.188 439.724,716.188 432.5,717.5C 430.092,723.724 428.092,730.057 426.5,736.5C 441.977,737.093 442.144,737.76 427,738.5C 423.167,738.167 419.333,737.833 415.5,737.5C 418.428,736.516 421.428,736.183 424.5,736.5C 431.833,713.5 439.167,690.5 446.5,667.5 Z"/></g>
<g><path style="opacity:1" fill="#fffaf7" d="M 532.5,670.5 C 531.503,692.66 531.169,714.994 531.5,737.5C 539.684,737.826 547.684,737.492 555.5,736.5C 558.559,736.203 561.059,734.87 563,732.5C 564.938,727.518 566.771,722.518 568.5,717.5C 569.811,724.39 569.811,731.223 568.5,738C 549.824,738.833 531.158,738.666 512.5,737.5C 515.428,736.516 518.428,736.183 521.5,736.5C 521.5,714.5 521.5,692.5 521.5,670.5C 518.428,670.817 515.428,670.484 512.5,669.5C 522.167,668.167 531.833,668.167 541.5,669.5C 538.572,670.484 535.572,670.817 532.5,670.5 Z"/></g>
<g><path style="opacity:1" fill="#fffaf6" d="M 660.5,736.5 C 661.663,715.337 661.829,694.004 661,672.5C 660.59,673.901 660.09,675.234 659.5,676.5C 652.368,697.228 645.035,717.895 637.5,738.5C 629.381,716.981 621.548,695.314 614,673.5C 613.5,694.497 613.333,715.497 613.5,736.5C 616.247,736.187 618.914,736.52 621.5,737.5C 615.5,738.833 609.5,738.833 603.5,737.5C 606.086,736.52 608.753,736.187 611.5,736.5C 611.5,714.5 611.5,692.5 611.5,670.5C 608.753,670.813 606.086,670.48 603.5,669.5C 610.134,668.503 616.8,668.17 623.5,668.5C 629.36,686.244 635.526,703.911 642,721.5C 648,704.167 654,686.833 660,669.5C 666.444,668.19 672.944,668.19 679.5,669.5C 676.914,670.48 674.247,670.813 671.5,670.5C 671.5,692.5 671.5,714.5 671.5,736.5C 674.247,736.187 676.914,736.52 679.5,737.5C 670.5,738.833 661.5,738.833 652.5,737.5C 655.086,736.52 657.753,736.187 660.5,736.5 Z"/></g>
<g><path style="opacity:1" fill="#ffc39e" d="M 532.5,670.5 C 532.5,692.5 532.5,714.5 532.5,736.5C 540.167,736.5 547.833,736.5 555.5,736.5C 547.684,737.492 539.684,737.826 531.5,737.5C 531.169,714.994 531.503,692.66 532.5,670.5 Z"/></g>
<g><path style="opacity:1" fill="#ffac79" d="M 660.5,736.5 C 660.83,716.326 660.497,696.326 659.5,676.5C 660.09,675.234 660.59,673.901 661,672.5C 661.829,694.004 661.663,715.337 660.5,736.5 Z"/></g>
<g><path style="opacity:1" fill="#ff9452" d="M 452.5,714.5 C 446.074,715.12 440.074,714.453 434.5,712.5C 436.827,703.685 439.66,695.019 443,686.5C 446.859,695.575 450.025,704.909 452.5,714.5 Z"/></g>
<g><path style="opacity:1" fill="#ffbb92" d="M 434.5,712.5 C 440.074,714.453 446.074,715.12 452.5,714.5C 446.355,715.49 440.022,715.823 433.5,715.5C 433.263,714.209 433.596,713.209 434.5,712.5 Z"/></g>
<g><path style="opacity:1" fill="#fffcfa" d="M 273.5,816.5 C 284.838,816.333 296.172,816.5 307.5,817C 320.389,820.231 325.556,828.398 323,841.5C 320.656,848.508 315.823,852.674 308.5,854C 303.177,854.499 297.844,854.666 292.5,854.5C 292.5,864.5 292.5,874.5 292.5,884.5C 295.572,884.183 298.572,884.516 301.5,885.5C 292.167,886.833 282.833,886.833 273.5,885.5C 276.428,884.516 279.428,884.183 282.5,884.5C 282.5,862.5 282.5,840.5 282.5,818.5C 278.988,819.055 275.988,818.388 273.5,816.5 Z"/></g>
<g><path style="opacity:1" fill="#fff9f6" d="M 608.5,816.5 C 624.503,816.333 640.503,816.5 656.5,817C 657.643,823.418 657.81,829.918 657,836.5C 656.793,829.922 654.293,824.422 649.5,820C 642.281,818.571 634.947,818.071 627.5,818.5C 627.5,828.5 627.5,838.5 627.5,848.5C 631.902,848.772 636.235,848.439 640.5,847.5C 642.294,844.281 643.794,840.948 645,837.5C 645.667,845.5 645.667,853.5 645,861.5C 643.286,851.71 637.453,848.043 627.5,850.5C 627.5,861.833 627.5,873.167 627.5,884.5C 630.572,884.183 633.572,884.516 636.5,885.5C 627.167,886.833 617.833,886.833 608.5,885.5C 611.428,884.516 614.428,884.183 617.5,884.5C 617.5,862.5 617.5,840.5 617.5,818.5C 613.988,819.055 610.988,818.388 608.5,816.5 Z"/></g>
<g><path style="opacity:1" fill="#ff914e" d="M 292.5,818.5 C 298.262,818.149 303.928,818.649 309.5,820C 313.844,823.87 315.511,828.703 314.5,834.5C 315.42,850.231 308.086,856.231 292.5,852.5C 292.5,841.167 292.5,829.833 292.5,818.5 Z"/></g>
<g><path style="opacity:1" fill="#fff9f6" d="M 386.5,844.5 C 404.768,844.268 413.268,853.268 412,871.5C 406.938,885.256 397.438,890.089 383.5,886C 369.208,875.04 367.875,862.707 379.5,849C 381.898,847.476 384.231,845.976 386.5,844.5 Z"/></g>
<g><path style="opacity:1" fill="#fffaf7" d="M 475.5,844.5 C 489.067,843.076 496.734,849.076 498.5,862.5C 489.5,862.5 480.5,862.5 471.5,862.5C 470.901,869.391 471.735,876.058 474,882.5C 476.412,885.792 479.579,886.959 483.5,886C 490.419,884.915 495.086,881.081 497.5,874.5C 498.167,873.167 498.833,873.167 499.5,874.5C 494.709,885.562 486.376,889.729 474.5,887C 463.456,881.072 459.289,871.905 462,859.5C 464.263,852.407 468.763,847.407 475.5,844.5 Z"/></g>
<g><path style="opacity:1" fill="#fffaf8" d="M 354.5,844.5 C 359.609,843.923 363.776,845.59 367,849.5C 367.636,856.03 364.803,858.363 358.5,856.5C 355.733,853.214 356.066,850.214 359.5,847.5C 353.544,846.059 349.044,848.059 346,853.5C 345.5,863.828 345.334,874.161 345.5,884.5C 347.924,884.192 350.257,884.526 352.5,885.5C 344.833,886.833 337.167,886.833 329.5,885.5C 331.743,884.526 334.076,884.192 336.5,884.5C 336.5,872.167 336.5,859.833 336.5,847.5C 334.076,847.808 331.743,847.474 329.5,846.5C 334.792,845.505 340.125,845.172 345.5,845.5C 345.34,847.199 345.506,848.866 346,850.5C 348.671,848.098 351.505,846.098 354.5,844.5 Z"/></g>
<g><path style="opacity:1" fill="#ff924f" d="M 387.5,846.5 C 390.518,846.335 393.518,846.502 396.5,847C 398.815,848.109 400.315,849.943 401,852.5C 401.667,861.167 401.667,869.833 401,878.5C 398.73,886.217 393.897,888.383 386.5,885C 384.396,882.958 383.229,880.458 383,877.5C 382.333,869.5 382.333,861.5 383,853.5C 383.938,850.743 385.438,848.41 387.5,846.5 Z"/></g>
<g><path style="opacity:1" fill="#fff9f5" d="M 433.5,844.5 C 439.892,843.791 445.892,844.957 451.5,848C 454.697,852.194 454.03,855.361 449.5,857.5C 444.14,856.067 443.14,853.067 446.5,848.5C 445.975,847.808 445.308,847.308 444.5,847C 437.459,844.65 432.626,846.817 430,853.5C 429.333,861.833 429.333,870.167 430,878.5C 432.575,886.418 437.742,888.585 445.5,885C 450.109,883.115 453.109,879.781 454.5,875C 455.332,874.312 455.998,874.479 456.5,875.5C 450.371,887.748 441.038,890.914 428.5,885C 418.448,877.164 415.948,867.331 421,855.5C 424.127,850.54 428.294,846.873 433.5,844.5 Z"/></g>
<g><path style="opacity:1" fill="#ff924f" d="M 487.5,860.5 C 482.5,860.5 477.5,860.5 472.5,860.5C 472.5,857.833 472.5,855.167 472.5,852.5C 472.84,850.321 473.84,848.488 475.5,847C 487.039,844.937 491.039,849.437 487.5,860.5 Z"/></g>
<g><path style="opacity:1" fill="#fff9f6" d="M 679.5,844.5 C 697.29,844.123 705.79,852.789 705,870.5C 700.325,885.921 690.492,890.754 675.5,885C 665.539,877.589 662.706,868.089 667,856.5C 670.403,851.595 674.57,847.595 679.5,844.5 Z"/></g>
<g><path style="opacity:1" fill="#ff924f" d="M 680.5,846.5 C 683.85,846.335 687.183,846.502 690.5,847C 692.768,848.558 693.934,850.724 694,853.5C 694.667,862.5 694.667,871.5 694,880.5C 691.367,885.732 687.201,887.565 681.5,886C 679.274,884.773 677.774,882.939 677,880.5C 675.526,871.546 675.193,862.546 676,853.5C 677.012,850.798 678.512,848.465 680.5,846.5 Z"/></g>
<g><path style="opacity:1" fill="#fff8f4" d="M 727.5,844.5 C 734.528,843.351 740.695,845.018 746,849.5C 746.988,857.538 744.321,859.204 738,854.5C 737.244,852.191 737.744,850.191 739.5,848.5C 739.291,847.914 738.957,847.414 738.5,847C 730.546,844.302 725.379,846.802 723,854.5C 722.202,863.213 722.536,871.88 724,880.5C 726.402,886.092 730.569,887.925 736.5,886C 741.965,884.368 745.632,880.868 747.5,875.5C 748.167,874.167 748.833,874.167 749.5,875.5C 744.377,887.054 735.71,890.554 723.5,886C 709.112,875.121 707.779,862.787 719.5,849C 722.099,847.205 724.766,845.705 727.5,844.5 Z"/></g>
<g><path style="opacity:1" fill="#ffd0b4" d="M 770.5,879.5 C 769.505,868.679 769.172,857.679 769.5,846.5C 764.305,846.179 759.305,846.513 754.5,847.5C 753.957,847.44 753.624,847.107 753.5,846.5C 759.128,845.505 764.794,845.171 770.5,845.5C 770.5,856.833 770.5,868.167 770.5,879.5 Z"/></g>
<g><path style="opacity:1" fill="#fffbf8" d="M 754.5,847.5 C 759.305,846.513 764.305,846.179 769.5,846.5C 769.172,857.679 769.505,868.679 770.5,879.5C 770.489,882.822 772.155,884.489 775.5,884.5C 779.809,883.928 783.309,881.928 786,878.5C 787.426,868.246 787.926,857.912 787.5,847.5C 785.076,847.808 782.743,847.474 780.5,846.5C 785.792,845.505 791.125,845.172 796.5,845.5C 796.5,858.5 796.5,871.5 796.5,884.5C 799.247,884.187 801.914,884.52 804.5,885.5C 798.872,886.495 793.206,886.829 787.5,886.5C 787.662,884.473 787.495,882.473 787,880.5C 781.511,886.824 774.678,888.991 766.5,887C 764.667,885.833 763.167,884.333 762,882.5C 761.5,870.838 761.333,859.171 761.5,847.5C 759.167,847.5 756.833,847.5 754.5,847.5 Z"/></g>
<g><path style="opacity:1" fill="#fff8f4" d="M 516.5,844.5 C 521.189,844.084 525.689,844.751 530,846.5C 530.95,845.978 531.784,845.311 532.5,844.5C 533.66,848.459 533.827,852.459 533,856.5C 530.547,848.024 525.047,844.857 516.5,847C 512.218,849.739 511.552,853.073 514.5,857C 519.728,858.974 525.062,860.641 530.5,862C 533.381,863.251 535.214,865.417 536,868.5C 537.751,883.903 530.918,890.07 515.5,887C 512.742,883.534 510.242,883.7 508,887.5C 507.333,883.167 507.333,878.833 508,874.5C 512.218,885.527 519.718,888.694 530.5,884C 533.981,880.603 534.314,876.936 531.5,873C 526.376,870.718 521.043,869.051 515.5,868C 509.092,864.677 506.925,859.511 509,852.5C 511.028,849.308 513.528,846.641 516.5,844.5 Z"/></g>
<g><path style="opacity:1" fill="#fff8f4" d="M 813.5,886.5 C 812.167,882.833 812.167,879.167 813.5,875.5C 816.005,883.255 821.338,886.755 829.5,886C 837.97,883.623 839.636,878.957 834.5,872C 828.381,870.305 822.381,868.305 816.5,866C 811.795,860.922 811.295,855.422 815,849.5C 820.595,844.136 826.929,843.136 834,846.5C 835.261,846.241 836.261,845.574 837,844.5C 837.667,848.5 837.667,852.5 837,856.5C 834.548,846.858 828.715,844.025 819.5,848C 815.16,851.934 815.493,855.267 820.5,858C 826.132,858.741 831.465,860.407 836.5,863C 843.305,870.921 842.971,878.587 835.5,886C 828.698,888.391 822.198,887.891 816,884.5C 814.699,884.639 813.866,885.305 813.5,886.5 Z"/></g>
<g><path style="opacity:1" fill="#fff8f4" d="M 553.5,844.5 C 558.189,844.084 562.689,844.751 567,846.5C 568.261,846.241 569.261,845.574 570,844.5C 570.667,848.5 570.667,852.5 570,856.5C 567.851,848.343 562.684,845.176 554.5,847C 549.3,849.138 548.3,852.471 551.5,857C 557.5,859 563.5,861 569.5,863C 575.563,869.358 576.063,876.191 571,883.5C 563.775,888.447 556.275,888.78 548.5,884.5C 547.281,885.263 546.281,886.263 545.5,887.5C 544.167,883.167 544.167,878.833 545.5,874.5C 548.744,884.621 555.411,888.121 565.5,885C 570.667,881.979 571.667,877.979 568.5,873C 562.679,870.501 556.679,868.501 550.5,867C 543.22,858.458 544.22,850.958 553.5,844.5 Z"/></g>
<g><path style="opacity:1" fill="#ffcdae" d="M 472.5,852.5 C 472.5,855.167 472.5,857.833 472.5,860.5C 477.5,860.5 482.5,860.5 487.5,860.5C 482.36,861.488 477.026,861.821 471.5,861.5C 471.19,858.287 471.523,855.287 472.5,852.5 Z"/></g>
<g><path style="opacity:1" fill="#ffc4a0" d="M 813.5,875.5 C 812.167,879.167 812.167,882.833 813.5,886.5C 813.44,887.043 813.107,887.376 812.5,887.5C 811.167,883.167 811.167,878.833 812.5,874.5C 813.107,874.624 813.44,874.957 813.5,875.5 Z"/></g>
</svg>
